<?xml version="1.0" standalone="no"?>
<!DOCTYPE svg PUBLIC "-//W3C//DTD SVG 20010904//EN"
 "http://www.w3.org/TR/2001/REC-SVG-20010904/DTD/svg10.dtd">
<svg version="1.0" xmlns="http://www.w3.org/2000/svg"
 width="1620.000000pt" height="1620.000000pt" viewBox="0 0 1620.000000 1620.000000"
 preserveAspectRatio="xMidYMid meet">
<metadata>
Created by potrace 1.14, written by Peter Selinger 2001-2017
</metadata>
<g transform="translate(0.000000,1620.000000) scale(0.100000,-0.100000)"
fill="#000000" stroke="none">
<path d="M8640 8590 c-144 -30 -246 -136 -280 -291 -16 -73 -8 -247 15 -314
35 -105 107 -177 209 -209 47 -15 79 -17 164 -13 59 2 125 11 147 19 l40 15 3
71 c3 81 4 80 -73 56 -27 -8 -82 -16 -120 -17 -159 -3 -225 91 -213 303 11
195 127 281 296 219 31 -11 64 -23 72 -25 12 -4 23 13 42 63 15 37 24 71 20
75 -4 3 -34 16 -67 27 -72 24 -193 34 -255 21z"/>
<path d="M9440 8590 c-68 -15 -144 -56 -185 -102 -115 -126 -137 -368 -50
-545 61 -124 148 -174 311 -181 202 -8 321 62 385 227 31 78 33 277 5 364 -36
109 -110 187 -211 222 -59 20 -192 28 -255 15z m197 -159 c54 -25 89 -84 103
-179 21 -130 -15 -266 -83 -316 -29 -21 -133 -34 -181 -22 -36 9 -84 53 -108
100 -42 83 -34 284 15 358 47 71 166 99 254 59z"/>
<path d="M4346 8192 c-76 -218 -141 -403 -144 -409 -3 -10 19 -13 91 -13 l95
0 20 68 c12 37 24 79 28 95 l6 28 150 -3 151 -3 27 -90 27 -90 96 -3 96 -3
-15 43 c-8 24 -71 201 -139 393 -68 193 -127 358 -130 368 -6 15 -21 17 -114
17 l-106 0 -139 -398z m303 76 l48 -158 -103 0 c-78 0 -102 3 -99 13 2 6 15
48 29 92 13 44 35 114 47 155 12 41 23 71 25 65 2 -5 26 -81 53 -167z"/>
<path d="M5190 8180 l0 -410 90 0 90 0 0 144 0 144 93 4 c145 7 232 57 275
157 23 55 20 176 -5 226 -59 113 -147 145 -405 145 l-138 0 0 -410z m357 227
c23 -23 27 -35 27 -81 0 -44 -5 -60 -23 -80 -24 -26 -88 -46 -145 -46 l-36 0
0 121 0 121 75 -4 c66 -3 78 -7 102 -31z"/>
<path d="M6010 8180 l0 -410 82 0 81 0 -6 301 c-5 246 -4 298 7 283 7 -10 86
-146 175 -301 l163 -283 109 0 109 0 0 410 0 410 -75 0 -75 0 -2 -300 -3 -300
-174 300 -174 300 -108 0 -109 0 0 -410z"/>
<path d="M7213 8558 c-6 -18 -67 -193 -136 -388 -68 -195 -128 -365 -131 -377
-7 -23 -6 -23 87 -23 l94 0 28 95 28 95 148 0 148 0 29 -92 28 -93 92 -3 c56
-2 92 1 92 7 0 6 -63 189 -140 407 -77 218 -140 398 -140 400 0 2 -49 4 -108
4 l-109 0 -10 -32z m217 -440 c0 -4 -45 -8 -101 -8 -91 0 -100 2 -95 18 3 9
24 78 46 152 22 74 43 142 46 150 5 12 104 -285 104 -312z"/>
<path d="M10200 8180 l0 -410 158 0 c223 0 313 25 406 110 87 80 131 237 107
380 -15 95 -45 154 -106 216 -85 85 -192 114 -427 114 l-138 0 0 -410z m354
248 c52 -16 108 -72 124 -124 15 -50 16 -185 2 -235 -27 -96 -95 -144 -222
-155 l-78 -6 0 266 0 266 66 0 c37 0 85 -6 108 -12z"/>
<path d="M11150 8180 l0 -410 235 0 235 0 0 70 0 70 -150 0 -150 0 0 105 0
105 140 0 141 0 -3 73 -3 72 -137 3 -138 3 0 84 0 85 150 0 151 0 -3 73 -3 72
-232 3 -233 2 0 -410z"/>
<path d="M11890 8181 l0 -411 85 0 85 0 0 155 0 155 49 0 c32 0 51 -5 54 -14
3 -7 45 -77 93 -155 l88 -141 99 0 98 0 -120 177 -120 176 44 28 c65 42 98 97
103 176 5 81 -16 140 -68 187 -60 54 -119 67 -317 73 l-173 6 0 -412z m312
249 c47 -14 68 -43 68 -97 0 -62 -29 -91 -105 -103 -113 -18 -105 -26 -105
100 l0 110 53 0 c28 0 69 -5 89 -10z"/>
</g>
</svg>
