<svg width="21" height="23" viewBox="0 0 21 23" fill="none" xmlns="http://www.w3.org/2000/svg">
<path d="M16.9084 12.3501C16.9201 11.5155 17.161 10.6971 17.6086 9.97114C18.0562 9.24519 18.696 8.63525 19.4685 8.19807C18.9778 7.55291 18.3304 7.02197 17.5777 6.64742C16.825 6.27287 15.9878 6.06502 15.1326 6.04039C13.3084 5.86413 11.5398 7.04522 10.6102 7.04522C9.66256 7.04522 8.23126 6.05789 6.68999 6.08708C5.69305 6.11673 4.72146 6.38359 3.86988 6.86164C3.01829 7.3397 2.31576 8.01266 1.83073 8.81495C-0.270322 12.1634 1.29687 17.0844 3.3095 19.791C4.31646 21.1164 5.49331 22.5968 7.03319 22.5443C8.54006 22.4868 9.10284 21.6599 10.9218 21.6599C12.7238 21.6599 13.2518 22.5443 14.8229 22.511C16.4399 22.4868 17.4586 21.1797 18.4302 19.8418C19.1537 18.8975 19.7105 17.8537 20.0798 16.7493C19.1404 16.3836 18.3388 15.7714 17.7748 14.9891C17.2108 14.2068 16.9095 13.289 16.9084 12.3501V12.3501Z" fill="white"/>
<path d="M13.941 4.26015C14.8227 3.28594 15.257 2.03376 15.1518 0.769531C13.8049 0.899752 12.5607 1.49231 11.6672 2.42914C11.2303 2.88681 10.8957 3.41924 10.6825 3.99601C10.4693 4.57278 10.3817 5.18258 10.4247 5.79053C11.0984 5.79692 11.7649 5.6625 12.374 5.39742C12.9831 5.13233 13.5189 4.74348 13.941 4.26015Z" fill="white"/>
</svg>
