<svg width="15" height="14" viewBox="0 0 15 14" fill="none" xmlns="http://www.w3.org/2000/svg">
<path d="M5.33341 10H12.1581L13.3334 10.9233V4H14.0001C14.1769 4 14.3465 4.07024 14.4715 4.19526C14.5965 4.32029 14.6667 4.48986 14.6667 4.66667V13.6667L11.6967 11.3333H6.00008C5.82327 11.3333 5.6537 11.2631 5.52868 11.1381C5.40365 11.013 5.33341 10.8435 5.33341 10.6667V10ZM3.63675 8.66667L0.666748 11V0.666667C0.666748 0.489856 0.736986 0.320286 0.86201 0.195262C0.987034 0.0702379 1.1566 0 1.33341 0H11.3334C11.5102 0 11.6798 0.0702379 11.8048 0.195262C11.9298 0.320286 12.0001 0.489856 12.0001 0.666667V8.66667H3.63675Z" fill="white"/>
</svg>
