<svg width="14" height="14" viewBox="0 0 14 14" fill="none" xmlns="http://www.w3.org/2000/svg">
<path d="M6.99992 13.6667C3.31792 13.6667 0.333252 10.682 0.333252 7.00004C0.333252 3.31804 3.31792 0.333374 6.99992 0.333374C10.6819 0.333374 13.6666 3.31804 13.6666 7.00004C13.6666 10.682 10.6819 13.6667 6.99992 13.6667ZM6.99992 9.00004C7.53035 9.00004 8.03906 8.78933 8.41413 8.41425C8.78921 8.03918 8.99992 7.53047 8.99992 7.00004C8.99992 6.46961 8.78921 5.9609 8.41413 5.58583C8.03906 5.21075 7.53035 5.00004 6.99992 5.00004C6.46949 5.00004 5.96078 5.21075 5.5857 5.58583C5.21063 5.9609 4.99992 6.46961 4.99992 7.00004C4.99992 7.53047 5.21063 8.03918 5.5857 8.41425C5.96078 8.78933 6.46949 9.00004 6.99992 9.00004V9.00004Z" fill="#439F7E"/>
</svg>
